<svg xmlns="http://www.w3.org/2000/svg" viewBox="0 0 193.5 193.5">
  <path d="M4.3 110.4l114.1-76.7c4.9-12 16.4-20.8 30.6-20.8 13.9 0 26 8.2 31 21.1l5 12.9c2.9 7.9 4.2 15 4.2 21.5 0 3.8-.3 7.1-1.8 12.8l-18.8 70.2-10.4-2.9 12.6-47.1c-3.8 2.6-8.8 5-13.8 6.9l-14.2 52.9-10.4-2.9 11.7-45-12.6 4.9-14.2 52.8-10.1-2.8 11.7-44.9c-8.6 4.4-14.7 10.6-17 19l-10.3 38.4-10.3-2.8 8.9-32.9c-9.6 5.3-20.6 8.2-32.9 8.2-23.5 0-41-13.3-50.9-37.7l-2.1-5.1zM125 75.8L18.5 116.5c7.9 16.3 21.5 26 38.9 26 28.9 0 46.6-16.7 56.6-43.9 2.6-7.3 6-15.6 11-22.8zm-8.8-27.7l-70.9 47 76.3-29.5-3.1-8.1c-1-3-2-6.3-2.3-9.4zm3.9 63.1l1.1-.4 31.5-12.4c18.2-7.1 25.6-15.8 25.6-29.7 0-3.9-.7-8.2-1.9-12.8l-16 6.1c-20.3 7.8-28.1 16.4-36.5 40.2-1.2 3.2-2.4 6.1-3.8 9zm7-65.4c0 2.5.4 5.3 1.4 7.9l3.1 8.1L173 46l-3.1-8.1c-3.5-9-11.5-14.3-20.7-14.3-12.8-.1-22.1 9.8-22.1 22.2zm20 1.9c4.3 0 7.8-3.5 7.8-7.9 0-4.3-3.5-7.8-7.8-7.8-4.4 0-7.9 3.5-7.9 7.8-.1 4.4 3.4 7.9 7.9 7.9z" fill="#1d1d1b"/>
</svg>
