<svg xmlns="http://www.w3.org/2000/svg" viewBox="0 0 468.5 193.5"><path d="M110.5 84.3c0 29.9-24.1 54.1-53.6 54.1-5 0-10-.7-14.8-2l-7 26.1-10.2-2.8 27.3-102 10.2 2.8L45 126.2c3.8 1.1 7.9 1.6 12 1.6 23.7 0 43-19.4 43-43.5 0-26.8-19.3-42.7-42.7-42.7C32.9 41.6 14 60.7 14 84.3H3.4C3.4 54.9 27.1 31 57.3 31c29.4 0 53.2 20.7 53.2 53.3zm76.2 10l-48.4 27.8c4.2 3.3 9.4 5.3 15.2 5.3 9.1 0 16.5-4.7 20.6-11.7l9.1 5.1c-6.5 11.1-18.1 17.4-29.9 17.4-19.5 0-34.7-16.5-34.7-35 0-19 15.8-34.4 34.8-34.4 15 0 28.9 9.9 33.1 25.2l.2.3zm-57.7 8.9c0 3.8.9 7.4 2.5 10.7l41.5-24c-4.5-6.5-12-10.4-19.9-10.4-13-.1-24.1 10.5-24.1 23.7zm96-65.9L197.9 139l-10.2-2.8 27.2-101.7 10.1 2.8zm7.7 30.5l10.2 2.8-18.4 68.4-10.2-2.8 18.4-68.4zm12.8-7.2l-10.2-2.8 6.2-23.2 10.2 2.8-6.2 23.2zm55.1 55.1l9.1 5.1c-6.5 11.1-18.1 17.4-29.9 17.4-18.9 0-34.7-15.4-34.7-34.6 0-18.9 15.4-34.7 34.7-34.7 5.8 0 11.7 1.5 17.1 4.6l-5.3 9.1c-3.7-2.1-7.8-3.2-11.9-3.2-13.3 0-24 10.6-24 24.1 0 13.3 10.8 23.9 24.1 23.9 8.3.2 16.3-4.1 20.8-11.7zm90.5-42.8l-18.2 68.9-10.4-2.5 2-7.5c-5.1 3-11.2 4.9-17.4 4.9-19.1 0-34.6-14.6-34.6-33.9 0-19 15.4-33.8 34.6-33.8 12.4 0 23.6 6.7 29.7 16.6l4.1-15.4 10.2 2.7zM347 126.1c13.2 0 24-9.5 24-23.3 0-13.6-10.8-23.2-24-23.2-13.3 0-24 10-24 23.2 0 13.4 10.7 23.3 24 23.3zm118.1-55.5L446.8 139l-10.3-2.8 14.4-53.6-43.4 29.8-7.3 27.6-10.3-2.8 17.9-67.7 10.2 2.8-6.6 25.3 43.4-29.9 10.3 2.9z"/></svg>