<svg xmlns="http://www.w3.org/2000/svg" viewBox="0 0 629.8 258"><path d="M2.8 140.7L102.1 74c4.2-10.4 14.3-18.1 26.6-18.1 12.1 0 22.6 7.1 27 18.4l4.4 11.2c2.5 6.9 3.6 13.1 3.6 18.7 0 3.3-.2 6.2-1.6 11.1l-16.3 61.1-9.1-2.5 11-41c-3.3 2.3-7.6 4.4-12 6L123.4 185l-9.1-2.5 10.2-39.2-11 4.2-12.3 45.9-8.8-2.4 10.2-39.1c-7.5 3.9-12.8 9.2-14.8 16.6l-8.9 33.4-8.9-2.4 7.7-28.7c-8.3 4.6-17.9 7.1-28.7 7.1-20.4 0-35.7-11.6-44.3-32.8l-1.9-4.4zm104.9-30.1L15.1 146c6.9 14.1 18.7 22.6 33.9 22.6 25.1 0 40.5-14.5 49.2-38.2 2.3-6.3 5.2-13.5 9.5-19.8zm-7.6-24.1l-61.7 40.9 66.4-25.6-2.7-7c-.9-2.7-1.7-5.6-2-8.3zm3.4 54.9l1-.4 27.4-10.8c15.8-6.2 22.2-13.8 22.2-25.9 0-3.4-.6-7.1-1.7-11.1l-13.9 5.3c-17.7 6.8-24.4 14.3-31.8 34.9-.9 2.9-2 5.5-3.2 8zm6.1-57c0 2.2.4 4.6 1.2 6.9l2.7 7 36-13.8-2.7-7c-3-7.9-10-12.5-18-12.5-11.1.1-19.2 8.7-19.2 19.4zm17.4 1.7c3.7 0 6.8-3 6.8-6.9 0-3.7-3-6.8-6.8-6.8-3.9 0-6.9 3-6.9 6.8 0 3.9 3 6.9 6.9 6.9z" fill="#1d1d1b"/><path d="M301.9 104.6c0 27.4-22.1 49.6-49.1 49.6-4.6 0-9.2-.6-13.5-1.8l-6.4 23.9-9.3-2.5 25-93.5 9.3 2.5-16.1 60.2c3.5 1 7.3 1.5 11 1.5 21.8 0 39.4-17.8 39.4-39.9 0-24.5-17.7-39.2-39.2-39.2-22.4 0-39.7 17.5-39.7 39.2h-9.7c0-27 21.6-48.8 49.3-48.8 27.2 0 49 19 49 48.8zm69.8 9.2l-44.4 25.5c3.9 3 8.6 4.8 13.9 4.8 8.3 0 15.1-4.4 18.9-10.8l8.3 4.7c-5.9 10.2-16.6 16-27.4 16-17.9 0-31.8-15.1-31.8-32 0-17.4 14.5-31.6 31.9-31.6 13.8 0 26.5 9.1 30.3 23.1l.3.3zm-52.8 8.1c0 3.5.8 6.8 2.3 9.8l38.1-22c-4.1-5.9-11-9.6-18.3-9.6-12 .1-22.1 9.7-22.1 21.8zm88-60.3L382 154.8l-9.3-2.5 24.9-93.2 9.3 2.5zm7 27.9l9.3 2.5-16.8 62.8-9.3-2.5 16.8-62.8zm11.7-6.6l-9.3-2.5 5.7-21.3 9.3 2.5-5.7 21.3zm50.6 50.5l8.3 4.7c-5.9 10.2-16.6 16-27.4 16-17.3 0-31.8-14.1-31.8-31.7 0-17.3 14.1-31.8 31.8-31.8 5.3 0 10.8 1.3 15.7 4.2l-4.8 8.3c-3.4-1.9-7.1-2.9-10.9-2.9-12.2 0-22 9.7-22 22.1 0 12.2 9.9 21.9 22.1 21.9 7.5.1 14.9-3.8 19-10.8zm82.9-39.2l-16.7 63.1-9.6-2.3 1.8-6.9c-4.7 2.8-10.3 4.5-16 4.5-17.5 0-31.7-13.4-31.7-31.1 0-17.4 14.1-31 31.7-31 11.4 0 21.6 6.2 27.2 15.2l3.7-14.1 9.6 2.6zM518.7 143c12.1 0 22-8.7 22-21.4 0-12.5-9.9-21.3-22-21.3-12.2 0-22 9.2-22 21.3 0 12.3 9.8 21.4 22 21.4zM627 92.1l-16.8 62.8-9.4-2.5 13.2-49.1-39.8 27.3-6.6 25.3-9.4-2.5 16.4-62 9.3 2.5-6 23.2 39.8-27.4 9.3 2.4z"/></svg>